/* XPM */
static char *result[] = {
/* columns rows colors chars-per-pixel */
"51 51 21 1 ",
"  c #463A10",
". c #463A11",
"X c #70684C",
"o c #7D7D7C",
"O c #857F6A",
"+ c #928D7D",
"@ c #787B87",
"# c #A5A197",
"$ c #989EB4",
"% c #929CC2",
"& c #97A3CD",
"* c #A4B3EB",
"= c #B4BFE7",
"- c #B3BFE8",
"; c #A9BBFB",
": c #ABBCFC",
"> c #ABBDFD",
", c #AABEFD",
"< c #C3C3C3",
"1 c gray77",
"2 c None",
/* pixels */
"222222222222222222222222222222222222222222222222222",
"222222222222222222222222222222222222222222222222222",
"222222222222222222222222222222222222222222222222222",
"222222222222222222222222222222222222222222222222222",
"222222222222222222222222222222222222222222222222222",
"222222222222222222222222222222222222222222222222222",
"2222222222222222222<<<<<<<-,,,,,,,,,,,,,,,222222222",
"222222222222222222<1111111=>>>>>>>>>>>>>>>222222222",
"222222222222222222<1111111=>>>>>>>>>>>>>>>222222222",
"222222222222222222<1111111=>>>>>>>>>>>>>>>222222222",
"222222222222222222<1111111=>>>>>>>>>>>>>>>222222222",
"222222222222222222<1111111=>>>>>>>>>>>>>>>222222222",
"222222222222222222<1111111=>>>>>>>>>>>>>>>222222222",
"222222222222222222+#######$%%%%%%%*:::::::222222222",
"22222222222.......................22222222222222222",
"22222222222.......................22222222222222222",
"22222222222.......................22222222222222222",
"22222222222.......................22222222222222222",
"22222222222.......................22222222222222222",
"22222222222.......................22222222222222222",
"22222222222.......................22222222222222222",
"22222222222.......................22222222222222222",
"22222222222.......................22222222222222222",
"22222222222.......................22222222222222222",
"22222222222.......................22222222222222222",
"22222222222.......................22222222222222222",
"22222222222.......................22222222222222222",
"22222222222.......................22222222222222222",
"22222222222.......................22222222222222222",
"22222222222.......................22222222222222222",
"22222222222.......................22222222222222222",
"22222222222.......................22222222222222222",
"22222222222.......................22222222222222222",
"22222222222.......................22222222222222222",
"22222222222.......................22222222222222222",
"22222222222.......................22222222222222222",
"22222222222       XOOOOOOOo@@@@@@@&;;;;;;;222222222",
"222222222222222222<1111111=>>>>>>>>>>>>>>>222222222",
"222222222222222222<1111111=>>>>>>>>>>>>>>>222222222",
"222222222222222222<1111111=>>>>>>>>>>>>>>>222222222",
"222222222222222222<1111111=>>>>>>>>>>>>>>>222222222",
"222222222222222222<1111111=>>>>>>>>>>>>>>>222222222",
"222222222222222222<1111111=>>>>>>>>>>>>>>>222222222",
"222222222222222222<1111111=>>>>>>>>>>>>>>>222222222",
"222222222222222222222222222222222222222222222222222",
"222222222222222222222222222222222222222222222222222",
"222222222222222222222222222222222222222222222222222",
"222222222222222222222222222222222222222222222222222",
"222222222222222222222222222222222222222222222222222",
"222222222222222222222222222222222222222222222222222",
"222222222222222222222222222222222222222222222222222"
};
