/* XPM */
static char *result[] = {
/* columns rows colors chars-per-pixel */
"50 50 3 1 ",
"  c #0D500F",
". c #40711A",
"X c #856A0B",
/* pixels */
"..................................................",
"......................XX..........................",
"......................XX..........................",
".....XX......XX.................XX................",
".....XX......XX.................XX...........  ...",
".......................................XX....  ...",
".......................................XX.........",
".............  ......XX...........................",
"...  ........  ......XX.....  ....................",
"...  .......................  ....................",
".........XX.......................................",
".........XX.......................................",
"................XX.....................  .........",
"XX..............XX.....XX........XX....  .........",
"XX.....................XX........XX...........XX..",
"..............................................XX..",
"..............  ..................................",
".....  .......  ..................................",
".....  ..................  .........  ............",
".........................  .........  ............",
"..........XX.........XX...........................",
"..........XX.........XX...........................",
".....................................XX.....  ....",
".....................................XX.....  ....",
".....XX..........  ........XX...  ................",
".....XX..........  ........XX...  ................",
"..................................................",
"...............XX.................................",
"...............XX....  ......................XX...",
"........  ...........  ............  ........XX...",
"........  .........................  .............",
".............................XX...................",
".............................XX...................",
"..................................................",
"................  ........................  ......",
"..XX......XX....  ...XX...................  ......",
"..XX......XX.........XX..............XX...........",
".....................................XX...........",
"..................................................",
"............................  ....................",
"......  ....................  ....................",
"......  .......  .................................",
"...............  .................................",
"........XX........................................",
"........XX.......................XX...  ..........",
"....................XX...........XX...  ......XX..",
"....................XX........................XX..",
"..................................................",
"..................................................",
".................................................."
};
