/* XPM */
static char *result[] = {
/* columns rows colors chars-per-pixel */
"50 50 19 1 ",
"  c #463A11",
". c #70684C",
"X c #807963",
"o c #857F6A",
"O c #7C7C80",
"+ c #787B87",
"@ c #959081",
"# c #8C8E96",
"$ c #858CA4",
"% c #9FAEE3",
"& c #A2B2E8",
"* c #B4BFE8",
"= c #B1BEEF",
"- c #A9BBFB",
"; c #ABBDFD",
": c #ACBDFD",
"> c #C3C3C3",
", c gray77",
"< c None",
/* pixels */
"<<<<<<<<<<<<<<<<<<<<<<<<<<<<<<<<<<<<<<<<<<<<<<<<<<",
"<<<<<<<<<<<<<<<<<<<<<<<<<<<<<<<<<<<<<<<<<<<<<<<<<<",
"<<<<<<<<<<<<<<<<<<<<<<<<<<<<<<<<<<<<<<<<<<<<<<<<<<",
"<<<<<<<<<<<<<<<<<<<<<<<<<<<<<<<<<<<<<<<<<<<<<<<<<<",
"<<<<<<<<<<<<<<<<<<<<<<<<<<<<<<<<<<<<<<<<<<<<<<<<<<",
"<<<<<<<<<<<<<<<<<<<<<<<<<<<<<<<<<<<<<<<<<<<<<<<<<<",
"<<<<<<<<<<<<<<<<<<<<<<<<<<<<<<<<<<<<<<<<<<<<<<<<<<",
"<<<<<<<<<<<<<<<<<<<<<<<<<<<<<<<<<<<<<<<<<<<<<<<<<<",
"<<<<<<;;;;;;;:<<<<<<<<<<<<<<<<<<<<<<-;;;;;;;<<<<<<",
"<<<<<<;;;;;;;:<<<<<<<<<<<<<<<<<<<<<<-;;;;;;;<<<<<<",
"<<<<<<;;;;;;;:<<<<<<<<<<<<<<<<<<<<<<-;;;;;;;<<<<<<",
"<<<<<<;;;;;;;:<<<<<<<<<<<<<<<<<<<<<<-;;;;;;;<<<<<<",
"<<<<<<;;;;;;;:<<<<<<<<<<<<<<<<<<<<<<-;;;;;;;<<<<<<",
"<<<<<<;;;;;;;:<<<<<<<<<<<<<<<<<<<<<<-;;;;;;;<<<<<<",
"<<<<<<;;;;;;;:<<<<<<<<<<<<<<<<<<<<<<-;;;;;;;<<<<<<",
"<<<<<<;;;;;;;&<<<<<<<<<<<<<<<<<<<<<<%;;;;;;;<<<<<<",
"<<<<<<;;;;;;;$                      +;;;;;;;<<<<<<",
"<<<<<<;;;;;;;$                      +;;;;;;;<<<<<<",
"<<<<<<;;;;;;;$                      +;;;;;;;<<<<<<",
"<<<<<<;;;;;;;$                      +;;;;;;;<<<<<<",
"<<<<<<;;;;;;;$                      +;;;;;;;<<<<<<",
"<<<<<<;;;;;;;$                      +;;;;;;;<<<<<<",
"<<<<<<;;;;;;;$                      +;;;;;;;<<<<<<",
"<<<<<<*******#                      O=======<<<<<<",
"<<<<<<,,,,,,,@                      o,,,,,,,<<<<<<",
"<<<<<<,,,,,,,@                      o,,,,,,,<<<<<<",
"<<<<<<,,,,,,,@                      o,,,,,,,<<<<<<",
"<<<<<<,,,,,,,@                      o,,,,,,,<<<<<<",
"<<<<<<,,,,,,,@                      o,,,,,,,<<<<<<",
"<<<<<<,,,,,,,@                      o,,,,,,,<<<<<<",
"<<<<<<,,,,,,,@                      o,,,,,,,<<<<<<",
"<<<<<<>>>>>>>X                      .>>>>>>><<<<<<",
"<<<<<<<<<<<<<<                      <<<<<<<<<<<<<<",
"<<<<<<<<<<<<<<                      <<<<<<<<<<<<<<",
"<<<<<<<<<<<<<<                      <<<<<<<<<<<<<<",
"<<<<<<<<<<<<<<                      <<<<<<<<<<<<<<",
"<<<<<<<<<<<<<<                      <<<<<<<<<<<<<<",
"<<<<<<<<<<<<<<                      <<<<<<<<<<<<<<",
"<<<<<<<<<<<<<<                      <<<<<<<<<<<<<<",
"<<<<<<<<<<<<<<<<<<<<<<<<<<<<<<<<<<<<<<<<<<<<<<<<<<",
"<<<<<<<<<<<<<<<<<<<<<<<<<<<<<<<<<<<<<<<<<<<<<<<<<<",
"<<<<<<<<<<<<<<<<<<<<<<<<<<<<<<<<<<<<<<<<<<<<<<<<<<",
"<<<<<<<<<<<<<<<<<<<<<<<<<<<<<<<<<<<<<<<<<<<<<<<<<<",
"<<<<<<<<<<<<<<<<<<<<<<<<<<<<<<<<<<<<<<<<<<<<<<<<<<",
"<<<<<<<<<<<<<<<<<<<<<<<<<<<<<<<<<<<<<<<<<<<<<<<<<<",
"<<<<<<<<<<<<<<<<<<<<<<<<<<<<<<<<<<<<<<<<<<<<<<<<<<",
"<<<<<<<<<<<<<<<<<<<<<<<<<<<<<<<<<<<<<<<<<<<<<<<<<<",
"<<<<<<<<<<<<<<<<<<<<<<<<<<<<<<<<<<<<<<<<<<<<<<<<<<",
"<<<<<<<<<<<<<<<<<<<<<<<<<<<<<<<<<<<<<<<<<<<<<<<<<<",
"<<<<<<<<<<<<<<<<<<<<<<<<<<<<<<<<<<<<<<<<<<<<<<<<<<"
};
