/* XPM */
static char *result[] = {
/* columns rows colors chars-per-pixel */
"51 51 19 1 ",
"  c #463A10",
". c #463A11",
"X c #70684C",
"o c #7D7C7D",
"O c #807963",
"+ c #857F6A",
"@ c #787B87",
"# c #959081",
"$ c #8B8E96",
"% c #858CA4",
"& c #96A1CC",
"* c #9AA6D4",
"= c #B4BFE8",
"- c #A9BBFB",
"; c #ABBDFD",
": c #ACBDFD",
"> c #C3C3C3",
", c gray77",
"< c None",
/* pixels */
"<<<<<<<<<<<<<<<<<<<<<<<<<<<<<<<<<<<<<<<<<<<<<<<<<<<",
"<<<<<<<<<<<<<<<<<<<<<<<<<<<<<<<<<<<<<<<<<<<<<<<<<<<",
"<<<<<<<<<<<<<<<<<<<<<<<<<<<<<<<<<<<<<<<<<<<<<<<<<<<",
"<<<<<<<<<<<<<<<<<<<<<<<<<<<<<<<<<<<<<<<<<<<<<<<<<<<",
"<<<<<<<<<<<<<<<<<<<<<<<<<<<<<<<<<<<<<<<<<<<<<<<<<<<",
"<<<<<<<<<<<<<<<<<<<<<<<<<<<<<<<<<<<<<<<<<<<<<<<<<<<",
"<<<<<<<<<<<<<<<<<<<<<<<<<<<<<<<<<<<<<<<<<<<<<<<<<<<",
"<<<<<<<<<<<<<<<<<<<<<<<<<<<<<<<<<<<<<<<<<<<<<<<<<<<",
"<<<<<<<<<<<<<<<<<<<<<<<<<<<<<<<<<<<<<<<<<<<<<<<<<<<",
"<<<<<<<<<<<<<<<<<<<<<<<<<<<<<<<<<<<<<<<<<<<<<<<<<<<",
"<<<<<<<<<<<<<<<<<<<<<<<<<<<<<<<<<<<<<<<<<<<<<<<<<<<",
"<<<<<<<<<<<<<<...................... <<<<<<<<<<<<<<",
"<<<<<<<<<<<<<<...................... <<<<<<<<<<<<<<",
"<<<<<<<<<<<<<<...................... <<<<<<<<<<<<<<",
"<<<<<<<<<<<<<<...................... <<<<<<<<<<<<<<",
"<<<<<<<<<<<<<<...................... <<<<<<<<<<<<<<",
"<<<<<<<<<<<<<<...................... <<<<<<<<<<<<<<",
"<<<<<<<<<<<<<<...................... <<<<<<<<<<<<<<",
"<<<<<<>>>>>>>O......................X>>>>>>><<<<<<<",
"<<<<<<,,,,,,,#......................+,,,,,,,<<<<<<<",
"<<<<<<,,,,,,,#......................+,,,,,,,<<<<<<<",
"<<<<<<,,,,,,,#......................+,,,,,,,<<<<<<<",
"<<<<<<,,,,,,,#......................+,,,,,,,<<<<<<<",
"<<<<<<,,,,,,,#......................+,,,,,,,<<<<<<<",
"<<<<<<,,,,,,,#......................+,,,,,,,<<<<<<<",
"<<<<<<,,,,,,,#......................+,,,,,,,<<<<<<<",
"<<<<<<=======$......................o=======<<<<<<<",
"<<<<<<;;;;;;;%......................@;;;;;;;<<<<<<<",
"<<<<<<;;;;;;;%......................@;;;;;;;<<<<<<<",
"<<<<<<;;;;;;;%......................@;;;;;;;<<<<<<<",
"<<<<<<;;;;;;;%......................@;;;;;;;<<<<<<<",
"<<<<<<;;;;;;;%......................@;;;;;;;<<<<<<<",
"<<<<<<;;;;;;;%......................@;;;;;;;<<<<<<<",
"<<<<<<;;;;;;;%......................@;;;;;;;<<<<<<<",
"<<<<<<;;;;;;;*<<<<<<<<<<<<<<<<<<<<<<&;;;;;;;<<<<<<<",
"<<<<<<;;;;;;;:<<<<<<<<<<<<<<<<<<<<<<-;;;;;;;<<<<<<<",
"<<<<<<;;;;;;;:<<<<<<<<<<<<<<<<<<<<<<-;;;;;;;<<<<<<<",
"<<<<<<;;;;;;;:<<<<<<<<<<<<<<<<<<<<<<-;;;;;;;<<<<<<<",
"<<<<<<;;;;;;;:<<<<<<<<<<<<<<<<<<<<<<-;;;;;;;<<<<<<<",
"<<<<<<;;;;;;;:<<<<<<<<<<<<<<<<<<<<<<-;;;;;;;<<<<<<<",
"<<<<<<;;;;;;;:<<<<<<<<<<<<<<<<<<<<<<-;;;;;;;<<<<<<<",
"<<<<<<;;;;;;;:<<<<<<<<<<<<<<<<<<<<<<-;;;;;;;<<<<<<<",
"<<<<<<<<<<<<<<<<<<<<<<<<<<<<<<<<<<<<<<<<<<<<<<<<<<<",
"<<<<<<<<<<<<<<<<<<<<<<<<<<<<<<<<<<<<<<<<<<<<<<<<<<<",
"<<<<<<<<<<<<<<<<<<<<<<<<<<<<<<<<<<<<<<<<<<<<<<<<<<<",
"<<<<<<<<<<<<<<<<<<<<<<<<<<<<<<<<<<<<<<<<<<<<<<<<<<<",
"<<<<<<<<<<<<<<<<<<<<<<<<<<<<<<<<<<<<<<<<<<<<<<<<<<<",
"<<<<<<<<<<<<<<<<<<<<<<<<<<<<<<<<<<<<<<<<<<<<<<<<<<<",
"<<<<<<<<<<<<<<<<<<<<<<<<<<<<<<<<<<<<<<<<<<<<<<<<<<<",
"<<<<<<<<<<<<<<<<<<<<<<<<<<<<<<<<<<<<<<<<<<<<<<<<<<<",
"<<<<<<<<<<<<<<<<<<<<<<<<<<<<<<<<<<<<<<<<<<<<<<<<<<<"
};
