/* XPM */
static char *result[] = {
/* columns rows colors chars-per-pixel */
"49 50 38 1 ",
"  c black",
". c #07020A",
"X c #07030A",
"o c #0E0515",
"O c #15081F",
"+ c #150820",
"@ c #1C0B2A",
"# c #230D35",
"$ c #230E34",
"% c #2A103E",
"& c #2A113E",
"* c #2A103F",
"= c #311349",
"- c #381653",
"; c #391653",
": c #381654",
"> c #391654",
", c #461B68",
"< c #471B68",
"1 c #471C68",
"2 c #471C69",
"3 c #4D1E73",
"4 c #4E1E72",
"5 c #55217D",
"6 c #5B2487",
"7 c #5C2487",
"8 c #5C2488",
"9 c #632691",
"0 c #632692",
"q c #632792",
"w c #6A299C",
"e c #6A299D",
"r c #712CA6",
"t c #712CA7",
"y c #712DA7",
"u c #C4C3C4",
"i c gray77",
"p c None",
/* pixels */
"ppppppppppppppppppppp      pppppppppppppppppppppp",
"ppppppppppppppppppp .;qtt8<o pppppppppppppppppppp",
"pppppppppppppppppp =ettttttt; ppppppppppppppppppp",
"ppppppppppppppppp 1tttttttttt< pppppppppppppppppp",
"pppppppppppppppp 1tttttttttttt< ppppppppppppppppp",
"ppppppppppppppp -tttttttttttttt; pppppppppppppppp",
"pppppppppppppppOttttttttiutttttr@pppppppppppppppp",
"pppppppppppppp 0ttttttttiutttttt7 ppppppppppppppp",
"pppppppppppppp%tttttttttttttttttr% pppppppppppppp",
"ppppppppppppp 0tttttttttttttttttt9 pppppppppppppp",
"ppppppppppppp%tttttttttttttttttttr@pppppppppppppp",
"pppppppppppp 5tttiittttttttttttttt5 ppppppppppppp",
"ppppppppppppottttiitttttttttttttttrXppppppppppppp",
"pppppppppppp%tttttttttttttyiutttttt=ppppppppppppp",
"ppppppppppp 4tttttttttttttyiutttttt3 pppppppppppp",
"ppppppppppp ettttttttttttttttttttttw pppppppppppp",
"pppppppppppOtttttttttttttttttttttttropppppppppppp",
"ppppppppppp$tttttttttttttttttttttttr%pppppppppppp",
"pppppppppp -ttttttttiitttttttttttttt- ppppppppppp",
"pppppppppp 4ttttttttiitttttttttttttt, ppppppppppp",
"pppppppppp 5tttttttttttttttttttttttt5 ppppppppppp",
"pppppppppp qtttttttttttttttttttttttt9 ppppppppppp",
"pppppppppp etttttttttttttttttyiuttttw ppppppppppp",
"pppppppppp ttttttttttttttttttyiuttttr ppppppppppp",
"pppppppppp tttttttttttttttttttttttttr ppppppppppp",
"pppppppppp tttttiittttttttttttttttttr ppppppppppp",
"pppppppppp tttttuuttttttttttttttttttr ppppppppppp",
"pppppppppp ettttttttttttttttttttttttw ppppppppppp",
"pppppppppp qttttttttttttiutttttttttt9 ppppppppppp",
"pppppppppp 5ttttttttttttiutttttttttt5 ppppppppppp",
"pppppppppp ,tttttttttttttttttttttttt3 ppppppppppp",
"pppppppppp -tttttttttttttttttttttttt- ppppppppppp",
"ppppppppppp&ttttyytttttttttttttttttr#pppppppppppp",
"pppppppppppottttiitttttttttttttttttr+pppppppppppp",
"ppppppppppp etttuuttttttttttttyiuttw pppppppppppp",
"ppppppppppp 4tttttttttttttttttyiutt3 pppppppppppp",
"pppppppppppp=tttttttttttttttttttttr*ppppppppppppp",
"ppppppppppppXtttttttttttttttttttttroppppppppppppp",
"pppppppppppp 5tttttttttttttttttttt5 ppppppppppppp",
"ppppppppppppp@tttttttttttttttttttr*pppppppppppppp",
"ppppppppppppp 0ttttttyytttttttttt9 pppppppppppppp",
"ppppppppppppp *ttttttiitttttttttr* pppppppppppppp",
"pppppppppppppp 0tttttuuttttttttt9 ppppppppppppppp",
"ppppppppppppppp@tttttttttttttttr+pppppppppppppppp",
"ppppppppppppppp :tttttttttttttt> pppppppppppppppp",
"pppppppppppppppp 1tttttttttttt2 ppppppppppppppppp",
"ppppppppppppppppp 1tttttttttt2 pppppppppppppppppp",
"pppppppppppppppppp :rtttttte= ppppppppppppppppppp",
"ppppppppppppppppppp o<6rtq:. pppppppppppppppppppp",
"ppppppppppppppppppppp      pppppppppppppppppppppp"
};
