/* XPM */
static char *result[] = {
/* columns rows colors chars-per-pixel */
"51 51 18 1 ",
"  c #463A10",
". c #463A11",
"X c #766F55",
"o c #857F6A",
"O c #857F6B",
"+ c #7C7C80",
"@ c #787B87",
"# c #959081",
"$ c #888D9E",
"% c #858CA4",
"& c #B1BFEE",
"* c #A9BBFB",
"= c #AABCFB",
"- c #ABBDFD",
"; c #ACBCFD",
": c gray77",
"> c #C5C5C5",
", c None",
/* pixels */
",,,,,,,,,,,,,,,,,,,,,,,,,,,,,,,,,,,,,,,,,,,,,,,,,,,",
",,,,,,,,,,,,,,,,,,,,,,,,,,,,,,,,,,,,,,,,,,,,,,,,,,,",
",,,,,,,,,,,,,,,,,,,,,,,,,,,,,,,,,,,,,,,,,,,,,,,,,,,",
",,,,,,,,,,,,,,,,,,,,,,,,,,,,,,,,,,,,,,,,,,,,,,,,,,,",
",,,,,,,,,,,,,,,,,,,,,,,,,,,,,,,,,,,,,,,,,,,,,,,,,,,",
",,,,,,,,,,,,,,,,,,,,,,,,,,,,,,,,,,,,,,,,,,,,,,,,,,,",
",,,,,,,,---------------&:::::::>,,,,,,,,,,,,,,,,,,,",
",,,,,,,,---------------&:::::::>,,,,,,,,,,,,,,,,,,,",
",,,,,,,,---------------&:::::::>,,,,,,,,,,,,,,,,,,,",
",,,,,,,,---------------&:::::::>,,,,,,,,,,,,,,,,,,,",
",,,,,,,,---------------&:::::::>,,,,,,,,,,,,,,,,,,,",
",,,,,,,,---------------&:::::::>,,,,,,,,,,,,,,,,,,,",
",,,,,,,,---------------&:::::::>,,,,,,,,,,,,,,,,,,,",
",,,,,,,,=;;;;;;;%%%%%%%$#######O,,,,,,,,,,,,,,,,,,,",
",,,,,,,,,,,,,,,,....................... ,,,,,,,,,,,",
",,,,,,,,,,,,,,,,....................... ,,,,,,,,,,,",
",,,,,,,,,,,,,,,,....................... ,,,,,,,,,,,",
",,,,,,,,,,,,,,,,....................... ,,,,,,,,,,,",
",,,,,,,,,,,,,,,,....................... ,,,,,,,,,,,",
",,,,,,,,,,,,,,,,....................... ,,,,,,,,,,,",
",,,,,,,,,,,,,,,,....................... ,,,,,,,,,,,",
",,,,,,,,,,,,,,,,....................... ,,,,,,,,,,,",
",,,,,,,,,,,,,,,,....................... ,,,,,,,,,,,",
",,,,,,,,,,,,,,,,....................... ,,,,,,,,,,,",
",,,,,,,,,,,,,,,,....................... ,,,,,,,,,,,",
",,,,,,,,,,,,,,,,....................... ,,,,,,,,,,,",
",,,,,,,,,,,,,,,,....................... ,,,,,,,,,,,",
",,,,,,,,,,,,,,,,....................... ,,,,,,,,,,,",
",,,,,,,,,,,,,,,,....................... ,,,,,,,,,,,",
",,,,,,,,,,,,,,,,....................... ,,,,,,,,,,,",
",,,,,,,,,,,,,,,,....................... ,,,,,,,,,,,",
",,,,,,,,,,,,,,,,....................... ,,,,,,,,,,,",
",,,,,,,,,,,,,,,,....................... ,,,,,,,,,,,",
",,,,,,,,,,,,,,,,....................... ,,,,,,,,,,,",
",,,,,,,,,,,,,,,,....................... ,,,,,,,,,,,",
",,,,,,,,,,,,,,,,....................... ,,,,,,,,,,,",
",,,,,,,,,*******@@@@@@@+oooooooX       ,,,,,,,,,,,,",
",,,,,,,,---------------&:::::::>,,,,,,,,,,,,,,,,,,,",
",,,,,,,,---------------&:::::::>,,,,,,,,,,,,,,,,,,,",
",,,,,,,,---------------&:::::::>,,,,,,,,,,,,,,,,,,,",
",,,,,,,,---------------&:::::::>,,,,,,,,,,,,,,,,,,,",
",,,,,,,,---------------&:::::::>,,,,,,,,,,,,,,,,,,,",
",,,,,,,,---------------&:::::::>,,,,,,,,,,,,,,,,,,,",
",,,,,,,,---------------&:::::::>,,,,,,,,,,,,,,,,,,,",
",,,,,,,,,,,,,,,,,,,,,,,,,,,,,,,,,,,,,,,,,,,,,,,,,,,",
",,,,,,,,,,,,,,,,,,,,,,,,,,,,,,,,,,,,,,,,,,,,,,,,,,,",
",,,,,,,,,,,,,,,,,,,,,,,,,,,,,,,,,,,,,,,,,,,,,,,,,,,",
",,,,,,,,,,,,,,,,,,,,,,,,,,,,,,,,,,,,,,,,,,,,,,,,,,,",
",,,,,,,,,,,,,,,,,,,,,,,,,,,,,,,,,,,,,,,,,,,,,,,,,,,",
",,,,,,,,,,,,,,,,,,,,,,,,,,,,,,,,,,,,,,,,,,,,,,,,,,,",
",,,,,,,,,,,,,,,,,,,,,,,,,,,,,,,,,,,,,,,,,,,,,,,,,,,"
};
