/* XPM */
static char *result[] = {
/* columns rows colors chars-per-pixel */
"52 56 8 1 ",
"  c #685E03",
". c #998B09",
"X c #9B9B9B",
"o c #A8A7A7",
"O c #D0C3A8",
"+ c gray77",
"@ c #EADBC0",
"# c None",
/* pixels */
"####............................................####",
"####.     ....     .++++++++++++..     ...     .####",
"####.     ####     #++++++++++++##     ###     .####",
"####..#.............++++++++++++.............#..####",
"####..#.############++++++++++++############.#..####",
"####..#.############++++++++++++############.#..####",
"####.  .############++++++++++++############.  .####",
"####.  .############++++++++++++############.  .####",
"####.  .############XXXXXXXXXXXX############.  .####",
"####.  .############XXXXXXXXXXXX############.  .####",
"####.  .############XXXXXXXXXXXX############.  .####",
"####..#.######oo++++++++++++++++++++oo######.#..####",
"####..#.######oo++++++++++++++++++++oo######.#..####",
"####..#.######oo++++++++++++++++++++oo######.#..####",
"####..#.######XX++++++++++++++++++++XX######.#..####",
"####..#.######XX++++++++++++++++++++XX######.#..####",
"####..#.######XX++++++++++++++++++++XX######.#..####",
"####.  .######XX++++++++++++++++++++XX######.  .####",
"####.  .######@@++++++++++++++++++++@@######.  .####",
"####.  .########++++++++++++++++++++########.  .####",
"####.  .########++++++++++++++++++++########.  .####",
"####.  .########++++++++++++++++++++########.  .####",
"####..#.########++++++++++++++++++++########.#..####",
"####..#.########++++++++++++++++++++########.#..####",
"####..#.########++++++++++++++++++++########.#..####",
"####..#.########++++++++++++++++++++########.#..####",
"####..#.########++++++++++++++++++++########.#..####",
"####.  .########++++++++++++++++++++########.  .####",
"####.  .########++++++++++++++++++++########.  .####",
"####.  .########++++++++++++++++++++########.  .####",
"####.  .########++++++++++++++++++++########.  .####",
"####.  .########++++++++++++++++++++########.  .####",
"####..#.######oo++++++++++++++++++++oo######.#..####",
"####..#.######oo++++++++++++++++++++oo######.#..####",
"####..#.######oo++++++++++++++++++++oo######.#..####",
"####..#.######oo++++++++++++++++++++oo######.#..####",
"####..#.######XXXXXXXXXXXXXXXXXXXXXXXX######.#..####",
"####.  .######XXXXXXXXXXXXXXXXXXXXXXXX######.  .####",
"####.  .######XXXXXXXXXXXXXXXXXXXXXXXX######.  .####",
"####.  .######XXXXXX############XXXXXX######.  .####",
"####.  .######OOOOOO############@@@@@@######.  .####",
"####.  .####################################.  .####",
"####..#.####################################.#..####",
"####..#.####################################.#..####",
"####..#......................................#..####",
"####.     ####     #####     #####     ###     .####",
"####.     ....     .....     .....     ...     .####",
"####............................................####",
"####################################################",
"####################################################",
"####################################################",
"####################################################",
"####################################################",
"####################################################",
"####################################################",
"####################################################"
};
