/* XPM */
static char *result[] = {
/* columns rows colors chars-per-pixel */
"50 50 39 1 ",
"  c #A3A613",
". c #A4A813",
"X c #A9AD13",
"o c #B9BC15",
"O c #BABD15",
"+ c #BBBF15",
"@ c #C3C715",
"# c #C0C516",
"$ c #C3C616",
"% c #C4C716",
"& c #C5C817",
"* c #CFD217",
"= c #D0D417",
"- c #D6DA17",
"; c #D1D418",
": c #DBDE18",
"> c #DBDF18",
", c #DEE319",
"< c #E0E318",
"1 c #E0E319",
"2 c #E0E418",
"3 c #E1E419",
"4 c #E1E41A",
"5 c #E2E51A",
"6 c #E5E819",
"7 c #E6E919",
"8 c #E5E91A",
"9 c #E7EB1A",
"0 c #E7EB1B",
"q c #E7EC1A",
"w c #E8EB1A",
"e c #E8EC19",
"r c #E8ED19",
"t c #E9ED19",
"y c #E8EC1A",
"u c #E9EC1A",
"i c #E8ED1A",
"p c #E8ED1B",
"a c None",
/* pixels */
"aaaaaaaaaaaaaaaaaaaaaaaaaaaaaaaaaaaaaaaaaaaaaaaaaa",
"aaaaaaaaaaaaaaaaaaaaaaaaaaaaaaaaaaaaaaaaaaaaaaaaaa",
"aaaaaaaaaaaaaaaaaaaaaaaaaaaaaaaaaaaaaaaaaaaaaaaaaa",
"aaaaaaaaaaaaaaaaaaaaaaaaaaaaaaaaaaaaaaaaaaaaaaaaaa",
"aaaaaaaaaaaaaaaaaaaaaaaaaaaaaaaaaaaaaaaaaaaaaaaaaa",
"aaaaaaaaaaaaaaaaaaaaaaaaaaaaaaaaaaaaaaaaaaaaaaaaaa",
"aaaaaaaaaaaaaaaaaaaaaayryyyre9aaaaaaaaaaaaaaaaaaaa",
"aaaaaaaaaaaaaaaaaaauyyyyyyyyyyyyaaaaaaaaaaaaaaaaaa",
"aaaaaaaaaaaaaaaaawyyyyyyyyyyyyyyyyaaaaaaaaaaaaaaaa",
"aaaaaaaaaaaaaaapyyyyyyyyyyyyyyyyyyytaaaaaaaaaaaaaa",
"aaaaaaaaaaaaaawyyyyyyyyyyyyyyyyyyyyyqaaaaaaaaaaaaa",
"aaaaaaaaaaaaawyyyyyyyyyyyyyyyyyyyyyyyqaaaaaaaaaaaa",
"aaaaaaaaaaaapyyyyyyyyyyyyyyyyyyyyyyyyytaaaaaaaaaaa",
"aaaaaaaaaaaayyyyyyyyyyyyyyyyyyyyyyyyyyyaaaaaaaaaaa",
"aaaaaaaaaaaiyyyyyyyyyyyyyyyyyyyyyyyyyyywaaaaaaaaaa",
"aaaaaaaaaaayyyyyyyyyyyyyyyyyyyyyyyyyyyyy9aaaaaaaaa",
"aaaaaaaaaaiyyyyyyyyyyyyyyyyyyyyyyyyyyyyyyaaaaaaaaa",
"aaaaaaaaaayyyyyyyyyyyyyyyyyyyyyyyyyyyyyyyaaaaaaaaa",
"aaaaaaaaa8yyyyyyyyyyyyyyyyyyyyyyyyyyyyyyy8aaaaaaaa",
"aaaaaaaaa0yyyyyyyyyyyyyyyyyyyyyyyyyyyyyyywaaaaaaaa",
"aaaaaaaaaqyyyyyyyyyyyyyyyyyyyyyyyyyyyyyyyqaaaaaaaa",
"aaaaaaaaayyyyyyyyyyyyyyyyyyyyyyyyyyyyyyyyyaaaaaaaa",
"aaaaaaaaayyyyyyyyyyyyyyyyyyyyyyyyyyyyyyyyyaaaaaaaa",
"aaaaaaaaayyyyyyyyyyyyyyyyyyyyyyyyyyyyyyyyyaaaaaaaa",
"aaaaaaaaa8yyyyyyyyyyyyyyyyyyyyyyyyyyyyyyy8aaaaaaaa",
"aaaaaaaaa,yyyyyyyyyyyyyyyyyyyyyyyyyyyyyyy2aaaaaaaa",
"aaaaaaaaa*yyyyyyyyyyyyyyyyyyyyyyyyyyyyyyy=aaaaaaaa",
"aaaaaaaaaayyyyyyyyyyyyyyyyyyyyyyyyyyyyyyyaaaaaaaaa",
"aaaaaaaaaa7yyyyyyyyyyyyyyyyyyyyyyyyyyyyy5aaaaaaaaa",
"aaaaaaaaaa%yyyyyyyyyyyyyyyyyyyyyyyyyyyyyaaaaaaaaaa",
"aaaaaaaaaaa4yyyyyyyyyyyyyyyyyyyyyyyyyyy3aaaaaaaaaa",
"aaaaaaaaaaaayyyyyyyyyyyyyyyyyyyyyyyyyyyXaaaaaaaaaa",
"aaaaaaaaaaaa&yyyyyyyyyyyyyyyyyyyyyyyyy@aaaaaaaaaaa",
"aaaaaaaaaaaaa>yyyyyyyyyyyyyyyyyyyyyyy:aaaaaaaaaaaa",
"aaaaaaaaaaaaaa>yyyyyyyyyyyyyyyyyyyyy:aaaaaaaaaaaaa",
"aaaaaaaaaaaaaaa$yyyyyyyyyyyyyyyyyyy#aaaaaaaaaaaaaa",
"aaaaaaaaaaaaaaaa.1yyyyyyyyyyyyyyy<aaaaaaaaaaaaaaaa",
"aaaaaaaaaaaaaaaaaa <yyyyyyyyyyy6+aaaaaaaaaaaaaaaaa",
"aaaaaaaaaaaaaaaaaaaaao-2yyy2;Oaaaaaaaaaaaaaaaaaaaa",
"aaaaaaaaaaaaaaaaaaaaaaaaaaaaaaaaaaaaaaaaaaaaaaaaaa",
"aaaaaaaaaaaaaaaaaaaaaaaaaaaaaaaaaaaaaaaaaaaaaaaaaa",
"aaaaaaaaaaaaaaaaaaaaaaaaaaaaaaaaaaaaaaaaaaaaaaaaaa",
"aaaaaaaaaaaaaaaaaaaaaaaaaaaaaaaaaaaaaaaaaaaaaaaaaa",
"aaaaaaaaaaaaaaaaaaaaaaaaaaaaaaaaaaaaaaaaaaaaaaaaaa",
"aaaaaaaaaaaaaaaaaaaaaaaaaaaaaaaaaaaaaaaaaaaaaaaaaa",
"aaaaaaaaaaaaaaaaaaaaaaaaaaaaaaaaaaaaaaaaaaaaaaaaaa",
"aaaaaaaaaaaaaaaaaaaaaaaaaaaaaaaaaaaaaaaaaaaaaaaaaa",
"aaaaaaaaaaaaaaaaaaaaaaaaaaaaaaaaaaaaaaaaaaaaaaaaaa",
"aaaaaaaaaaaaaaaaaaaaaaaaaaaaaaaaaaaaaaaaaaaaaaaaaa",
"aaaaaaaaaaaaaaaaaaaaaaaaaaaaaaaaaaaaaaaaaaaaaaaaaa"
};
